<svg width="54" height="51" viewBox="0 0 54 51" fill="none" xmlns="http://www.w3.org/2000/svg">
<rect width="54" height="51" rx="25.5" fill="#2972FE" fill-opacity="0.1"/>
<mask id="mask0_6_4" style="mask-type:alpha" maskUnits="userSpaceOnUse" x="13" y="16" width="28" height="19">
<path fill-rule="evenodd" clip-rule="evenodd" d="M26.9866 20.1666C26.9866 22.38 25.2133 24.1666 23 24.1666C20.7866 24.1666 19 22.38 19 20.1666C19 17.9533 20.7866 16.1666 23 16.1666C25.2133 16.1666 26.9866 17.9533 26.9866 20.1666ZM36.32 22.1666C36.32 24.0066 34.84 25.5 33 25.5C31.16 25.5 29.6666 24.0066 29.6666 22.1666C29.6666 20.3266 31.16 18.8333 33 18.8333C34.84 18.8333 36.32 20.3266 36.32 22.1666ZM33 28.1666C30.56 28.1666 25.6666 29.3933 25.6666 31.8333V33.5C25.6666 34.2333 26.2666 34.8333 27 34.8333H39C39.7333 34.8333 40.3333 34.2333 40.3333 33.5V31.8333C40.3333 29.3933 35.44 28.1666 33 28.1666ZM13.6666 31.5C13.6666 28.3933 19.8933 26.8333 23 26.8333C23.88 26.8333 25 26.9666 26.16 27.2066C23.44 28.7133 23 30.7 23 31.8333V34.8333H15C14.2666 34.8333 13.6666 34.2333 13.6666 33.5V31.5Z" fill="black"/>
</mask>
<g mask="url(#mask0_6_4)">
<path d="M11 9.5H43V41.5H11V9.5Z" fill="url(#paint0_linear_6_4)"/>
</g>
<defs>
<linearGradient id="paint0_linear_6_4" x1="43" y1="41.5777" x2="11" y2="9.57774" gradientUnits="userSpaceOnUse">
<stop stop-color="#FF5722"/>
<stop offset="1" stop-color="#6499FF"/>
</linearGradient>
</defs>
</svg>
